<?xml version="1.0" standalone="no"?>
<!DOCTYPE svg PUBLIC "-//W3C//DTD SVG 20010904//EN"
 "http://www.w3.org/TR/2001/REC-SVG-20010904/DTD/svg10.dtd">
<svg version="1.0" xmlns="http://www.w3.org/2000/svg"
 width="256.000000pt" height="256.000000pt" viewBox="0 0 256.000000 256.000000"
 preserveAspectRatio="xMidYMid meet">
<metadata>
Created by potrace 1.16, written by Peter Selinger 2001-2019
</metadata>
<g transform="translate(0.000000,256.000000) scale(0.100000,-0.100000)"
fill="#000000" stroke="none">
<path d="M845 2108 c-49 -27 -85 -73 -106 -137 -35 -108 -28 -105 -253 -111
-188 -5 -193 -6 -233 -32 -24 -16 -49 -44 -62 -70 -21 -44 -21 -54 -21 -606 0
-607 0 -603 53 -660 51 -54 -1 -52 1057 -52 1076 0 1010 -4 1064 60 14 17 30
48 36 68 8 25 10 219 8 603 l-3 565 -28 43 c-47 71 -81 81 -289 81 -209 0
-212 2 -247 111 -21 65 -58 112 -108 138 -30 15 -840 15 -868 -1z m1020 -463
c52 -51 15 -135 -59 -135 -42 0 -76 37 -76 82 0 39 40 78 80 78 19 0 40 -9 55
-25z m-454 -81 c201 -59 349 -256 349 -464 -1 -283 -274 -517 -549 -470 -281
47 -465 320 -396 585 43 164 166 295 325 346 70 23 199 24 271 3z"/>
<path d="M1207 1410 c-98 -25 -192 -110 -223 -202 -25 -77 -16 -188 22 -258
115 -212 433 -212 548 0 38 70 47 181 21 259 -22 68 -99 152 -164 180 -58 25
-150 34 -204 21z"/>
<path d="M282 2024 c-24 -17 -29 -53 -10 -72 13 -13 212 -17 242 -6 10 4 16
18 16 40 0 45 -24 54 -138 54 -63 0 -94 -4 -110 -16z"/>
</g>
</svg>
